<svg width="32" height="32" viewBox="0 0 32 32" fill="none" xmlns="http://www.w3.org/2000/svg">
<path d="M21.7102 13.2899C21.6172 13.1962 21.5066 13.1218 21.3848 13.071C21.2629 13.0203 21.1322 12.9941 21.0002 12.9941C20.8682 12.9941 20.7375 13.0203 20.6156 13.071C20.4937 13.1218 20.3831 13.1962 20.2902 13.2899L16.0002 17.5899L11.7102 13.2899C11.5219 13.1016 11.2665 12.9958 11.0002 12.9958C10.7339 12.9958 10.4785 13.1016 10.2902 13.2899C10.1019 13.4782 9.99609 13.7336 9.99609 13.9999C9.99609 14.2662 10.1019 14.5216 10.2902 14.7099L15.2902 19.7099C15.3831 19.8037 15.4937 19.8781 15.6156 19.9288C15.7375 19.9796 15.8682 20.0057 16.0002 20.0057C16.1322 20.0057 16.2629 19.9796 16.3848 19.9288C16.5066 19.8781 16.6172 19.8037 16.7102 19.7099L21.7102 14.7099C21.8039 14.617 21.8783 14.5064 21.9291 14.3845C21.9798 14.2627 22.006 14.132 22.006 13.9999C22.006 13.8679 21.9798 13.7372 21.9291 13.6154C21.8783 13.4935 21.8039 13.3829 21.7102 13.2899Z" fill="black"/>
</svg>
