<?xml version="1.0" standalone="no"?>
<!DOCTYPE svg PUBLIC "-//W3C//DTD SVG 20010904//EN"
 "http://www.w3.org/TR/2001/REC-SVG-20010904/DTD/svg10.dtd">
<svg version="1.0" xmlns="http://www.w3.org/2000/svg"
 width="512.000000pt" height="512.000000pt" viewBox="0 0 512.000000 512.000000"
 preserveAspectRatio="xMidYMid meet">
<metadata>
Created by potrace 1.16, written by Peter Selinger 2001-2019
</metadata>
<g transform="translate(0.000000,512.000000) scale(0.100000,-0.100000)"
fill="#000000" stroke="none">
<path d="M1245 4669 c-149 -25 -276 -115 -340 -240 -49 -95 -55 -165 -55 -609
l0 -410 -310 0 c-352 0 -382 -5 -459 -80 -57 -56 -74 -94 -79 -181 -4 -66 -1
-84 20 -130 30 -65 77 -114 138 -143 42 -20 63 -21 368 -24 l322 -3 0 -230 0
-229 -322 0 c-319 0 -324 0 -373 -24 -101 -48 -154 -134 -155 -252 0 -86 31
-156 92 -208 73 -63 95 -66 444 -66 l313 0 3 -542 c3 -537 3 -544 26 -606 31
-85 65 -135 122 -177 69 -51 122 -67 220 -67 181 -1 292 82 353 265 20 59 21
86 25 595 l3 532 498 0 497 0 302 -462 c377 -579 436 -663 536 -764 126 -126
228 -168 406 -167 227 3 350 98 406 315 14 53 17 143 21 571 l5 507 312 0
c348 0 371 3 444 66 61 52 92 122 92 208 -1 118 -54 204 -155 252 -49 24 -54
24 -372 24 l-323 0 0 229 0 230 323 3 c304 3 325 4 367 24 61 29 108 78 138
143 21 46 24 64 20 130 -3 44 -12 90 -22 109 -28 55 -90 108 -150 131 -53 20
-76 21 -365 21 l-309 0 -5 468 c-3 309 -8 482 -16 511 -55 208 -213 313 -421
280 -157 -25 -248 -119 -285 -297 -12 -52 -15 -166 -15 -514 l0 -448 -560 0
-561 0 -277 420 c-152 231 -311 472 -352 535 -131 202 -236 286 -382 305 -83
11 -85 11 -153 -1z m187 -206 c53 -21 122 -101 221 -255 223 -351 638 -968
655 -977 14 -8 228 -11 686 -11 l665 0 28 24 28 24 5 534 c6 552 6 561 48 626
43 67 181 75 245 14 58 -56 60 -76 65 -648 l3 -522 25 -23 26 -24 373 -5 373
-5 26 -24 c34 -32 35 -80 2 -118 l-24 -28 -375 -3 -375 -3 -26 -26 -26 -26 0
-361 c0 -403 -1 -396 68 -416 22 -6 176 -10 385 -10 l348 0 24 -25 c34 -33 34
-84 -1 -118 l-26 -26 -375 -3 -375 -3 -24 -28 -24 -28 0 -497 c0 -533 -7 -647
-44 -728 -42 -91 -126 -125 -257 -105 -181 29 -208 60 -723 851 -174 267 -330
497 -346 513 l-30 27 -596 0 c-637 0 -637 0 -664 -49 -6 -13 -10 -210 -10
-564 0 -567 -4 -630 -43 -700 -35 -62 -86 -84 -184 -79 -39 2 -87 42 -116 96
-22 41 -22 46 -27 638 l-5 598 -28 27 -27 28 -369 3 -369 3 -26 26 c-32 31
-34 80 -7 114 l19 24 376 5 376 5 27 28 28 27 3 333 c2 182 1 346 -3 364 -3
17 -14 42 -24 55 l-19 23 -377 5 -377 5 -24 28 c-33 38 -32 86 2 118 l26 24
366 5 c264 4 373 8 388 17 41 24 44 55 44 523 0 490 4 534 54 608 34 49 113
101 175 113 45 9 114 1 163 -18z"/>
<path d="M1458 3774 c-15 -8 -32 -23 -38 -34 -6 -11 -10 -108 -10 -240 l0
-222 29 -29 29 -29 152 0 c196 0 220 11 220 97 0 29 -26 75 -136 244 -110 169
-141 210 -166 218 -39 14 -47 13 -80 -5z"/>
<path d="M1436 3014 l-26 -27 0 -362 0 -362 24 -26 c15 -16 39 -28 67 -32 24
-3 248 -5 496 -3 l453 3 27 28 c56 55 51 66 -191 437 -120 184 -227 343 -238
353 -18 15 -48 17 -303 17 l-282 0 -27 -26z m648 -389 c80 -123 146 -227 146
-230 0 -3 -142 -5 -315 -5 l-315 0 0 230 0 230 169 0 169 0 146 -225z"/>
<path d="M2533 3016 c-21 -19 -28 -33 -28 -63 0 -34 28 -81 219 -370 120 -182
229 -342 243 -355 l25 -23 327 0 c356 0 369 2 391 54 7 18 10 139 8 380 l-3
353 -28 24 -28 24 -549 0 -549 0 -28 -24z m997 -396 l0 -230 -223 0 -224 0
-98 148 c-54 81 -123 184 -152 230 l-53 82 375 0 375 0 0 -230z"/>
<path d="M3212 2005 c-35 -29 -45 -69 -28 -110 19 -46 354 -547 382 -572 37
-33 88 -31 125 6 l29 29 0 297 c0 328 -3 344 -61 364 -19 7 -109 11 -225 11
-190 0 -193 0 -222 -25z"/>
</g>
</svg>
